<?xml version="1.0" encoding="utf-8"?>
<!-- Generator: Adobe Illustrator 16.0.0, SVG Export Plug-In . SVG Version: 6.00 Build 0)  -->
<!DOCTYPE svg PUBLIC "-//W3C//DTD SVG 1.0//EN" "http://www.w3.org/TR/2001/REC-SVG-20010904/DTD/svg10.dtd">
<svg version="1.0" id="Layer_1" xmlns="http://www.w3.org/2000/svg" xmlns:xlink="http://www.w3.org/1999/xlink" x="0px" y="0px"
	 width="841.89px" height="595.28px" viewBox="0 0 841.89 595.28" enable-background="new 0 0 841.89 595.28" xml:space="preserve">
<path fill="#212121" d="M415.771,73.012c81.72,0,147.969,66.248,147.969,147.968c0,81.718-66.249,147.964-147.969,147.964
	c-81.722,0-147.969-66.246-147.969-147.964C267.803,139.26,334.05,73.012,415.771,73.012"/>
<g>
	<g id="XMLID_5_">
		<g>
			<path fill="#0B88CA" d="M558.097,220.98c0,12.832-1.697,25.27-4.885,37.101c-7.176-0.482-18.08-0.957-27.301,1.156
				c-5.078,1.156-9.644,3.099-12.802,6.256c-0.489,0.422-0.949,0.882-1.379,1.371l-189.867,2.721
				c-12.201-0.741-30.132,1.957-39.168,1.957c-5.975-15.714-9.244-32.756-9.244-50.562c0-78.604,63.719-142.322,142.322-142.322
				C494.378,78.658,558.097,142.376,558.097,220.98z"/>
			<path fill="#212121" d="M525.911,259.237c9.221-2.113,20.125-1.638,27.301-1.156c-16.323,60.613-71.673,105.222-137.438,105.222
				c-60.798,0-112.687-38.123-133.079-91.761c9.036,0,26.967-2.698,39.168-1.957c3.818,0.222,7.161,0.778,9.637,1.838
				c6.671,3.706,15.566,16.308,22.979,22.238c8.154,5.93,14.084,14.825,23.72,20.014c16.308,8.154,36.322,8.896,53.371,5.931
				c13.343-2.224,20.015-3.707,28.168-15.566c6.672-8.154,6.672-16.308,15.566-20.015c0.341-0.133,0.689-0.259,1.045-0.363
				c0.46-0.141,0.935-0.26,1.409-0.356c2.765-0.549,5.744-0.378,8.747-0.186c0.141,0.007,0.281,0.015,0.422,0.03
				c4.507,0.333,9.073,0.756,13.12-0.837c12.32-4.87,8.54-14.321,13.617-15.478l-1.935,0.03c0.43-0.489,0.89-0.949,1.379-1.371
				C516.268,262.335,520.833,260.393,525.911,259.237z"/>
			<path fill="#212121" d="M511.73,266.864l1.935-0.03c-5.077,1.157-1.297,10.608-13.617,15.478
				c-4.047,1.593-8.613,1.171-13.12,0.837c4.463,0.296,8.955,0.593,12.839-1.349C505.808,279.118,507.595,271.571,511.73,266.864z"
				/>
			<path fill="#084D6B" d="M321.863,269.585l189.867-2.721c-4.136,4.707-5.923,12.253-11.964,14.937
				c-3.884,1.942-8.376,1.646-12.839,1.349c-0.141-0.015-0.281-0.022-0.422-0.03c-3.01-0.222-5.99-0.371-8.747,0.186
				c-0.482,0.096-0.949,0.208-1.409,0.356c-0.355,0.104-0.704,0.229-1.045,0.363c-8.895,3.707-8.895,11.86-15.566,20.015
				c-8.153,11.859-14.825,13.343-28.168,15.566c-17.049,2.965-37.063,2.224-53.371-5.931c-9.636-5.188-15.566-14.084-23.72-20.014
				c-7.413-5.93-16.308-18.532-22.979-22.238C329.024,270.363,325.681,269.807,321.863,269.585z"/>
			<path fill="#39B54A" d="M477.759,283.306c2.757-0.556,5.737-0.408,8.747-0.186C483.503,282.928,480.523,282.757,477.759,283.306z
				"/>
			<path fill="#39B54A" d="M476.35,283.662c0.46-0.148,0.927-0.26,1.409-0.356C477.284,283.402,476.81,283.521,476.35,283.662z"/>
		</g>
		<g>
		</g>
	</g>
</g>
<path fill="#175C8A" d="M402.956,273.997c0,1.919-11.376,3.478-25.411,3.478c-14.033,0-25.41-1.559-25.41-3.478
	c0-1.925,11.377-3.479,25.41-3.479C391.58,270.517,402.956,272.072,402.956,273.997z"/>
<path fill="#A7CF38" d="M357.408,273.419c0,0,4.137-21.423-3.587-28.098c0,0,8.276,4.523,8.276,20.023
	c0,0,1.654-10.765-1.655-20.881c0,0,6.348,6.889,4.967,21.743c0,0,0.551-19.162,3.31-23.899c0,0-2.482,19.593,1.381,25.192
	c0,0,2.207-12.488,1.655-20.239c0,0,4.691,10.98,1.932,19.808c0,0,6.155-13.565,0.869-24.761c0,0,8.449,11.196,6.136,25.404
	c0,0,4.308-23.037,12.033-23.681c0,0-6.621,6.028-4.138,23.25c0,0,5.665-8.369,4.138-15.597c0,0,2.452,5.481,0.262,16.462
	c0,0,7.188-21.293,18.774-16.462c0,0-11.587-2.053-13.518,21.735H357.408z"/>
<g id="XMLID_4_">
	<path fill="#3C2415" d="M409.247,201.451"/>
	<path fill="#361C0E" d="M404.349,201.014c0,0.008,0,0.008,0,0.018h-0.008C404.341,201.031,404.349,201.021,404.349,201.014z"/>
</g>
<ellipse fill="#353535" cx="312.033" cy="282.951" rx="24.276" ry="4.469"/>
<path fill="#353535" d="M527.401,294.647c0,2.882-10.355,5.218-23.131,5.218c-12.771,0-23.128-2.336-23.128-5.218
	c0-2.88,10.357-5.211,23.128-5.211C517.046,289.437,527.401,291.768,527.401,294.647z"/>
<g id="XMLID_3_">
	<g id="XMLID_6_">
		<path fill="#82B241" d="M557.176,194.779c12.961,0,23.46,10.508,23.46,23.46c0,12.955-10.499,23.453-23.46,23.453
			c-11.276,0-20.7-7.967-22.946-18.567c4.089-1.2,7.067-1.776,7.067-1.776v-1.563c0,0-4.271,0.681-7.441,0.926
			c-0.089-0.813-0.133-1.643-0.133-2.473c0-1.038,0.07-2.068,0.202-3.074c0.717,0.08,1.44,0.115,2.185,0.115
			C547.559,215.28,556.869,206.152,557.176,194.779z"/>
		<path fill="#82B241" d="M557.176,194.779c-0.307,11.374-9.617,20.501-21.066,20.501c-0.744,0-1.468-0.036-2.185-0.115
			C535.427,203.663,545.262,194.779,557.176,194.779z"/>
		<path fill="#3E8A41" d="M536.109,173.146c6.708,0,12.673,3.136,16.532,8.008c-5.614,4.595-12.785,7.345-20.612,7.345
			c-5.345,0-10.394-1.283-14.84-3.571C520.621,177.949,527.803,173.146,536.109,173.146z"/>
		<path fill="#82B241" d="M541.297,221.349c0,0-2.979,0.576-7.067,1.776c-0.165-0.797-0.288-1.591-0.374-2.413
			c3.17-0.245,7.441-0.926,7.441-0.926V221.349z"/>
		<path fill="#BFD964" d="M532.029,188.499c7.827,0,14.998-2.75,20.612-7.345c2.84,3.59,4.534,8.124,4.534,13.067
			c0,0.183,0,0.376,0,0.558c-11.914,0-21.749,8.884-23.251,20.386c-1.073-0.103-2.123-0.294-3.146-0.566
			c0.212-4.01,0.446-8.567,0.446-8.567h-1.274c0,0-0.357,4.227-0.977,8.017c-8.124-2.925-13.942-10.7-13.942-19.827
			c0-3.336,0.777-6.49,2.157-9.293C521.636,187.216,526.685,188.499,532.029,188.499z"/>
		<path fill="#A9D155" d="M531.226,206.031c0,0-0.234,4.557-0.446,8.567c-0.61-0.159-1.213-0.341-1.805-0.55
			c0.619-3.791,0.977-8.017,0.977-8.017H531.226z"/>
		<path fill="#2B5C2D" d="M517.75,176.237c0,0-1.8,3.231-3.658,6.883c-0.447-0.297-0.885-0.603-1.312-0.917
			c1.87-3.504,3.404-6.681,3.404-6.681L517.75,176.237z"/>
		<path fill="#2B5C2D" d="M514.092,183.12c1.858-3.651,3.658-6.883,3.658-6.883l-1.565-0.715c0,0-1.534,3.177-3.404,6.681
			c-2.43-1.782-4.604-3.896-6.447-6.272c3.879-4.183,6.255-9.782,6.255-15.931c0-7.757-3.764-14.621-9.566-18.884
			c5.399-10.542,16.36-17.757,29.008-17.757c17.992,0,32.57,14.587,32.57,32.579c0,10.167-4.654,19.242-11.958,25.215
			c-3.859-4.872-9.824-8.008-16.532-8.008c-8.307,0-15.488,4.804-18.92,11.782C516.126,184.387,515.085,183.774,514.092,183.12z"/>
		<path fill="#027D3F" d="M506.333,175.931c-4.305-5.52-6.864-12.464-6.864-19.993c0-5.345,1.283-10.384,3.553-14.822
			c5.803,4.263,9.566,11.127,9.566,18.884C512.588,166.149,510.212,171.748,506.333,175.931z"/>
		<path fill="#027D3F" d="M494.621,174.954c0,0,1.396,2.979,3.092,6.873c-1.459,0.569-2.997,1.004-4.576,1.268
			c-5.137-9.451-15.007-15.957-26.431-16.316c-0.646-2.139-0.997-4.418-0.997-6.777c0-12.944,10.501-23.444,23.434-23.444
			c5.2,0,9.993,1.688,13.879,4.56c-2.27,4.438-3.553,9.477-3.553,14.822c0,7.528,2.56,14.473,6.864,19.993
			c-1.922,2.08-4.227,3.808-6.794,5.084c-1.941-3.607-3.494-6.769-3.494-6.769L494.621,174.954z"/>
		<path fill="#574638" d="M504.036,289.379c2.568-0.086,5.24-0.131,7.984-0.131c0.289,0,0.576,0,0.854,0
			c0.115,0.446,0.228,0.876,0.333,1.284c-2.689-0.034-5.433-0.061-8.218-0.061c-0.332,0-0.665,0-0.988,0.008
			C504.011,290.226,504.02,289.86,504.036,289.379z"/>
		<path fill="#574638" d="M501.765,242.057c0,0,3.356,4.115,3.214,13.339c-0.121,7.905-0.76,28.309-0.942,33.983
			c-2.194,0.08-4.297,0.177-6.315,0.308c1.268-4.885,3.396-13.739,4.044-20.386c0.944-9.653,1.521-22.979-0.892-26.523l0.892-1.285
			V242.057z"/>
		<path fill="#574638" d="M503.984,290.868c0,0-4.83,1.001-7.233,2.405c0,0,0.298-1.036,0.744-2.741
			c2.139-0.034,4.306-0.053,6.506-0.053C503.992,290.726,503.984,290.868,503.984,290.868z"/>
		<path fill="#574638" d="M500.873,242.777c2.413,3.545,1.836,16.871,0.892,26.523c-0.647,6.647-2.776,15.501-4.044,20.386
			c-0.541,0.038-1.073,0.069-1.607,0.112c4.788-15.172,5.364-35.222,4.612-41.268c-0.847-6.858-7.948-12.142-12.77-16.402
			c-2.097-1.844-4.288-4.787-6.088-7.521c0.586-0.35,1.155-0.727,1.705-1.11c1.677,2.28,3.176,4.097,3.24,3.362
			c0.025-0.383-0.48-2.586-1.087-5.021c0.387-0.324,0.78-0.655,1.155-1.014c4.419,9.537,14.849,18.962,15.547,16.411
			c0.847-3.118,2.27-33.763,0.986-40.001c-0.725-3.555-3.467-10.271-5.694-15.408c0.62-0.251,1.232-0.515,1.818-0.811
			c2.638,4.908,5.999,10.647,7.143,10.402c1.085-0.236,3.836-4.969,6.099-9.214c0.427,0.314,0.864,0.62,1.312,0.917
			c-1.618,3.143-3.271,6.612-3.862,8.578c-1.277,4.251-1.982,17.589-1.703,23.974c0.288,6.386,1.273,17.453,1.273,17.453
			c3.268-5.957,16.037-11.635,17.602-13.478c0.627-0.742,1.152-3.075,1.573-5.598c0.592,0.209,1.194,0.392,1.805,0.55
			c-0.14,2.89-0.262,5.485-0.262,5.895c0,0.375,1.478,0.366,3.338,0.218c0.086,0.822,0.209,1.616,0.374,2.413
			c-4.992,1.464-11.642,3.866-16.479,7.299c-8.798,6.246-8.517,15.898-9.364,28.667c-0.575,8.585,2.446,22.174,4.488,30.157
			c-0.277,0-0.564,0-0.854,0c-2.744,0-5.416,0.045-7.984,0.131c0.183-5.674,0.821-26.078,0.942-33.983
			c0.143-9.224-3.214-13.339-3.214-13.339v-0.565L500.873,242.777z"/>
		<path fill="#574638" d="M504.001,290.479c-2.2,0-4.367,0.019-6.506,0.053c0.069-0.261,0.15-0.55,0.226-0.846
			c2.019-0.131,4.121-0.228,6.315-0.308C504.02,289.86,504.011,290.226,504.001,290.479z"/>
		<path fill="#027D3F" d="M497.713,181.826c-1.695-3.894-3.092-6.873-3.092-6.873l1.424-0.707c0,0,1.553,3.162,3.494,6.769
			c-0.586,0.296-1.198,0.56-1.818,0.811C497.721,181.826,497.721,181.826,497.713,181.826z"/>
		<path fill="#574638" d="M495.871,290.548c0.541-0.007,1.081-0.016,1.624-0.016c-0.446,1.705-0.744,2.741-0.744,2.741
			c2.403-1.404,7.233-2.405,7.233-2.405s0.008-0.143,0.017-0.389c0.323-0.008,0.656-0.008,0.988-0.008
			c2.785,0,5.528,0.026,8.218,0.061c0.819,3.152,1.422,5.154,1.422,5.154c-9.361-3.406-20.717,0-20.717,0
			C494.638,294.073,495.285,292.35,495.871,290.548z"/>
		<path fill="#574638" d="M495.871,290.548c0.077-0.242,0.166-0.496,0.242-0.749c0.534-0.043,1.066-0.074,1.607-0.112
			c-0.075,0.296-0.156,0.585-0.226,0.846C496.952,290.532,496.412,290.541,495.871,290.548z"/>
		<path fill="#547736" d="M477.814,217.838c0,0,1.704,3.206,4.054,6.77c-4.706,2.864-10.245,4.508-16.159,4.508
			c-17.221,0-31.179-13.951-31.179-31.173c0-17.216,13.958-31.181,31.179-31.181c0.333,0,0.657,0.008,0.997,0.016
			c2.909,9.644,11.863,16.656,22.437,16.656c1.363,0,2.692-0.112,3.994-0.34c2.393,4.419,3.755,9.477,3.755,14.849
			c0,9.049-3.861,17.197-10.01,22.882c-1.004-2.148-1.695-4.297-1.904-6.324h-1.136c0,0,1.041,3.905,1.885,7.337
			c-0.696,0.584-1.413,1.136-2.153,1.66c-2.166-2.944-4.62-6.656-4.62-6.656L477.814,217.838z"/>
		<path fill="#547736" d="M484.978,214.501c0.209,2.026,0.9,4.175,1.904,6.324c-0.375,0.358-0.769,0.689-1.155,1.014
			c-0.844-3.433-1.885-7.337-1.885-7.337H484.978z"/>
		<path fill="#547736" d="M466.706,166.777c11.424,0.359,21.294,6.866,26.431,16.316c-1.302,0.228-2.631,0.34-3.994,0.34
			C478.569,183.434,469.615,176.421,466.706,166.777z"/>
		<path fill="#547736" d="M478.953,216.842c0,0,2.454,3.712,4.62,6.656c-0.55,0.383-1.119,0.76-1.705,1.11
			c-2.35-3.564-4.054-6.77-4.054-6.77L478.953,216.842z"/>
	</g>
</g>
<g>
	<path fill="#009444" d="M354.324,172.835c-1.757,4.9-5.716,8.742-10.68,10.346c-0.694-4.339-2.043-8.461-3.941-12.262
		c1.078-0.11,2.174-0.168,3.28-0.168C346.981,170.75,350.801,171.487,354.324,172.835z"/>
	<path fill="#009444" d="M326.2,224.928c-0.55,1.206-1.127,2.443-1.657,3.5c-0.593-0.418-1.166-0.863-1.724-1.321
		C323.979,226.428,325.11,225.702,326.2,224.928z"/>
	<path fill="#009444" d="M330.289,221.608c-0.463,2.242-1.349,5.929-2.659,8.766c-1.068-0.589-2.1-1.236-3.087-1.946
		c0.53-1.057,1.107-2.293,1.657-3.5C327.63,223.9,328.997,222.794,330.289,221.608z"/>
	<path fill="#89C768" d="M355.313,167.139c0,1.999-0.346,3.92-0.988,5.696c-3.523-1.348-7.343-2.085-11.341-2.085
		c-1.106,0-2.202,0.058-3.28,0.168c-3.096-6.217-7.661-11.578-13.243-15.623c3.058-3.097,7.301-5.015,11.995-5.015
		C347.767,150.281,355.313,157.83,355.313,167.139z"/>
	<path fill="#009444" d="M343.645,183.181c0.361,2.226,0.543,4.507,0.543,6.834c0,12.503-5.356,23.757-13.898,31.593
		c0.25-1.219,0.375-2.012,0.375-2.012h-2.163c0,0-1.068,2.59-2.301,5.332c-1.09,0.773-2.221,1.5-3.381,2.179
		c-7.1-5.83-11.622-14.674-11.622-24.57c0-10.677,5.263-20.126,13.342-25.892c3.032,4.436,8.133,7.35,13.916,7.35
		C340.267,183.995,342.012,183.71,343.645,183.181z"/>
	<path fill="#006838" d="M326.46,155.296c5.582,4.044,10.147,9.406,13.243,15.623c-5.62,0.573-10.803,2.615-15.164,5.727
		c-1.854-2.706-2.939-5.981-2.939-9.506C321.6,162.524,323.454,158.34,326.46,155.296z"/>
	<path fill="#009444" d="M345.393,222.147c0,0-3.614,6.994-6.532,11.913c-1.049-0.139-2.089-0.326-3.105-0.562
		c2.282-3.587,6.294-11.351,6.294-11.351H345.393z"/>
	<path fill="#3C2415" d="M305.105,280.473c0,0,6.271-1.169,8.591-1.016l1.2-33.713h-3.689
		C311.207,245.744,311.207,272.98,305.105,280.473z M320.477,280.473c-6.548,0-12.813,0.146-18.57,0.408
		c9.378-9.456,7.157-34.975,7.157-34.975s-6.866-4.521-10.403-7.658c-1.449-1.286-2.368-3.538-2.951-5.735
		c1.396,0.182,2.813,0.299,4.242,0.343c0.992,1.867,2.032,3.459,2.832,3.822c2.157,0.981,10.408,2.943,10.408,2.943l-7.336-6.979
		c1.123-0.121,2.23-0.279,3.323-0.487c2.487,2.524,7.153,5.896,7.153,5.896s5.303-5.106,6.872-7.264
		c0.356-0.491,0.829-1.337,1.339-2.36c0.987,0.71,2.019,1.357,3.087,1.946c-0.158,0.346-0.327,0.684-0.501,1
		c-2.293,4.207-6.82,9.34-7.061,9.617c0.396-0.127,12.975-4.337,14.521-5.885c0.274-0.272,0.678-0.845,1.165-1.608
		c1.017,0.236,2.057,0.423,3.105,0.562c-0.871,1.462-1.675,2.744-2.307,3.598c-2.75,3.727-14.136,9.818-14.136,9.818
		c-1.633,7.006,3.232,26.597,4.934,33.051C325.102,280.496,322.81,280.473,320.477,280.473z"/>
	<path fill="#006838" d="M301.324,147.151c9.393,0,18.075,3.021,25.136,8.145c-3.006,3.044-4.86,7.229-4.86,11.843
		c0,3.525,1.085,6.8,2.939,9.506c-8.079,5.765-13.342,15.215-13.342,25.892c0,9.896,4.522,18.74,11.622,24.57
		c-4.157,2.414-8.752,4.148-13.641,5.048c-0.573-0.583-1.029-1.123-1.289-1.564c-1.378-2.355-5.106-13.938-5.106-13.938h-2.552
		l4.709,15.118l0.915,0.872c-1.488,0.154-3.001,0.235-4.531,0.235c-0.458,0-0.916-0.002-1.373-0.021
		c-1.694-3.19-3.256-7.173-3.256-7.173l-1.965,0.588c0,0,0.14,3.072,0.979,6.243c-21.023-2.751-37.248-20.73-37.248-42.499
		C258.461,166.344,277.647,147.151,301.324,147.151"/>
	<path fill="#009444" d="M374.771,202.537c0,17.555-14.233,31.788-31.788,31.788c-1.396,0-2.773-0.094-4.123-0.264
		c2.918-4.919,6.532-11.913,6.532-11.913h-3.344c0,0-4.012,7.764-6.294,11.351c-2.88-0.67-5.605-1.731-8.125-3.125
		c1.311-2.837,2.196-6.524,2.659-8.766c8.542-7.836,13.898-19.09,13.898-31.593c0-2.327-0.182-4.608-0.543-6.834
		c4.964-1.604,8.923-5.446,10.68-10.346C366.278,177.401,374.771,188.979,374.771,202.537"/>
	<path fill="#009444" d="M338.455,183.995c-5.783,0-10.884-2.914-13.916-7.35c4.361-3.112,9.544-5.153,15.164-5.727
		c1.898,3.801,3.247,7.923,3.941,12.262C342.012,183.71,340.267,183.995,338.455,183.995z"/>
	<path fill="#009444" d="M328.501,219.596h2.163c0,0-0.125,0.792-0.375,2.012c-1.292,1.186-2.659,2.292-4.089,3.32
		C327.433,222.186,328.501,219.596,328.501,219.596z"/>
	<path fill="#3C2415" d="M327.352,280.527c0.347,1.327,0.563,2.097,0.563,2.097c-12.763-0.789-29.648,0.785-29.648,0.785
		c1.379-0.596,2.58-1.458,3.641-2.528c5.757-0.262,12.022-0.408,18.57-0.408C322.81,280.473,325.102,280.496,327.352,280.527z"/>
	<path fill="#3C2415" d="M314.896,245.744l-1.2,33.713c-2.319-0.153-8.591,1.016-8.591,1.016c6.102-7.493,6.102-34.729,6.102-34.729
		H314.896z"/>
	<path fill="#006838" d="M307.89,230.591c0.26,0.441,0.716,0.982,1.289,1.564c-1.093,0.208-2.2,0.366-3.323,0.487l-0.915-0.872
		l-4.709-15.118h2.552C302.783,216.653,306.512,228.236,307.89,230.591z"/>
	<path fill="#006838" d="M296.695,225.683c0,0,1.562,3.983,3.256,7.173c-1.43-0.044-2.846-0.161-4.242-0.343
		c-0.839-3.171-0.979-6.243-0.979-6.243L296.695,225.683z"/>
</g>
<g>
	<path fill="#0B88CA" d="M90.423,416.428c0.754-3.895,2.197-7.382,4.336-10.462c2.135-3.079,4.713-5.686,7.729-7.825
		c3.016-2.134,6.282-3.83,9.802-5.09c3.517-1.254,7.037-2.072,10.557-2.449c4.648-0.501,9.205,0,13.668,1.508
		c4.459,1.509,8.45,3.71,11.97,6.599c3.518,2.891,6.315,6.315,8.389,10.274c2.074,3.958,3.111,8.199,3.111,12.725
		c0,0.377,0,0.975,0,1.79c0,0.818-0.095,1.635-0.283,2.45c-0.188,0.818-0.441,1.542-0.754,2.168
		c-0.315,0.631-0.849,0.944-1.603,0.944c-0.754,0.251-1.508-0.126-2.262-1.132c-1.132-1.255-2.327-2.829-3.582-4.713
		c-1.258-1.885-2.389-3.517-3.394-4.902c-1.384-1.885-3.204-3.455-5.467-4.712c-2.262-1.255-4.713-2.196-7.352-2.827
		c-2.64-0.629-5.278-0.911-7.918-0.85c-2.639,0.064-5.027,0.536-7.163,1.414c-3.771,1.508-6.286,3.111-7.541,4.807
		c-1.257,1.696-1.729,3.426-1.414,5.186c0.313,1.762,1.288,3.52,2.922,5.276c1.632,1.763,3.518,3.395,5.656,4.903
		c2.136,1.508,4.336,2.826,6.598,3.958c2.263,1.131,4.147,2.011,5.655,2.64c4.147,1.76,8.2,3.646,12.159,5.654
		c3.959,2.014,7.352,4.431,10.18,7.258c2.828,2.829,4.931,6.129,6.315,9.897c1.381,3.771,1.632,8.171,0.754,13.196
		c-0.754,3.896-2.2,7.386-4.336,10.462c-2.139,3.081-4.713,5.688-7.729,7.824c-3.017,2.137-6.286,3.835-9.803,5.09
		c-3.521,1.257-7.04,2.073-10.557,2.45c-4.778,0.503-9.364,0-13.762-1.509c-4.4-1.508-8.359-3.704-11.877-6.598
		c-3.52-2.89-6.314-6.313-8.388-10.272c-2.074-3.961-3.111-8.201-3.111-12.725c0-0.377,0-0.973,0-1.793
		c0-0.815,0.095-1.632,0.283-2.45c0.188-0.815,0.438-1.537,0.754-2.168c0.313-0.626,0.849-0.941,1.603-0.941
		c0.754-0.251,1.508,0.126,2.262,1.132c1.131,1.257,2.324,2.827,3.582,4.713c1.255,1.883,2.386,3.52,3.393,4.899
		c1.382,1.886,3.205,3.458,5.468,4.713c2.262,1.26,4.712,2.201,7.352,2.829c2.639,0.629,5.278,0.913,7.917,0.847
		c2.64-0.062,5.025-0.533,7.164-1.413c3.895-1.255,6.472-2.95,7.729-5.09c1.255-2.135,1.319-4.397,0.188-6.785
		c-1.132-2.387-3.364-4.87-6.692-7.448c-3.331-2.573-7.573-4.994-12.725-7.257c-4.147-1.886-8.2-3.833-12.159-5.845
		c-3.959-2.009-7.417-4.396-10.368-7.162c-2.954-2.764-5.155-6.034-6.598-9.803C89.637,426.042,89.415,421.583,90.423,416.428z"/>
	<path fill="#0B88CA" d="M239.913,405.493c-1.008,6.411-3.082,12.979-6.222,19.7c-3.143,6.727-6.851,13.322-11.122,19.795
		c-4.273,6.475-8.798,12.662-13.573,18.568c-4.777,5.908-9.301,11.249-13.572,16.023c5.906-1.131,12.188-1.16,18.851-0.095
		c6.66,1.069,12.631,3.427,17.909,7.07c0.501,0.377,1.287,1.036,2.356,1.978c1.066,0.944,2.074,1.98,3.017,3.112
		c0.942,1.131,1.632,2.293,2.073,3.486c0.439,1.195,0.218,2.234-0.659,3.111c-0.631,0.631-1.446,1.006-2.451,1.132
		c-1.008,0.126-2.044,0.159-3.11,0.093c-1.069-0.063-2.168-0.219-3.299-0.47c-1.131-0.252-2.139-0.439-3.017-0.567
		c-7.417-1.003-14.893-1.475-22.433-1.413c-7.541,0.063-15.458,0.787-23.753,2.168c-1.385,0.253-2.954,0.659-4.713,1.226
		c-1.762,0.564-3.394,0.913-4.901,1.037c-1.508,0.125-2.671-0.219-3.487-1.037c-0.818-0.815-0.975-2.606-0.472-5.372
		c1.382-6.911,4.21-14.294,8.483-22.152c4.271-7.853,9.205-15.613,14.798-23.281c5.591-7.663,11.436-15.016,17.532-22.055
		c6.095-7.037,11.655-13.258,16.684-18.663c-5.279,1.008-10.527,1.854-15.741,2.545c-5.216,0.692-11.027,0.659-17.438-0.095
		c-1.007-0.124-2.639-0.439-4.901-0.942c-2.262-0.5-4.557-1.192-6.881-2.072c-2.326-0.88-4.368-1.917-6.126-3.112
		c-1.762-1.192-2.64-2.545-2.64-4.053c0-1.381,0.378-2.512,1.131-3.395c0.755-0.877,1.697-1.601,2.828-2.168
		c1.131-0.564,2.292-0.97,3.487-1.224c1.193-0.251,2.229-0.5,3.11-0.754c7.414-1.383,15.331-2.199,23.753-2.45
		c8.418-0.251,16.4,0.377,23.941,1.883c3.894,0.755,6.786,2.234,8.671,4.431C239.913,399.683,240.54,402.354,239.913,405.493z"/>
	<path fill="#0B88CA" d="M277.236,490.514c0.5,1.509,0.345,2.922-0.472,4.241c-0.818,1.321-1.979,2.452-3.487,3.394
		s-3.11,1.696-4.808,2.263c-1.696,0.564-3.175,0.975-4.43,1.224c-0.754,0.129-1.979,0.254-3.676,0.378
		c-1.696,0.128-3.426,0.128-5.185,0c-1.762-0.124-3.363-0.439-4.807-0.942c-1.446-0.5-2.233-1.254-2.356-2.263
		c-0.504-2.386-0.159-4.302,1.036-5.749c1.193-1.444,2.796-2.857,4.808-4.24c-0.881-2.764-1.635-5.906-2.263-9.426
		c-0.63-3.518-1.13-7.165-1.508-10.934c-0.377-3.771-0.659-7.542-0.848-11.311c-0.189-3.771-0.348-7.353-0.472-10.747
		c-0.253-6.282-0.064-13.007,0.565-20.172c0.627-7.162,1.632-13.761,3.017-19.792c-1.508,0-2.922-0.313-4.241-0.944
		c-1.32-0.626-2.295-1.413-2.922-2.354c-0.631-0.944-0.914-2.043-0.849-3.3c0.062-1.254,0.783-2.575,2.167-3.958
		c4.021-4.022,9.615-6.034,16.778-6.034c1.885,0,3.958,0.282,6.221,0.85c2.263,0.564,3.706,1.916,4.336,4.053
		c0.377,1.132,0.345,2.168-0.094,3.109c-0.442,0.944-1.069,1.791-1.886,2.545c-0.818,0.755-1.762,1.447-2.827,2.075
		c-1.069,0.629-2.045,1.129-2.922,1.507c1.004,6.788,1.853,13.606,2.545,20.454c0.688,6.852,1.036,14.171,1.036,21.962
		c0,6.409-0.159,12.914-0.471,19.513c-0.315,6.596-0.849,13.166-1.603,19.697c0.754,0.128,1.632,0.254,2.639,0.377
		c1.005,0.129,1.979,0.378,2.922,0.755c0.943,0.377,1.792,0.882,2.545,1.508C276.482,488.882,276.982,489.637,277.236,490.514z"/>
	<path fill="#0B88CA" d="M362.819,463.18c-0.378,0-0.819-0.095-1.319-0.282c-0.505-0.19-1.635-0.785-3.394-1.791
		c-0.127,3.646-0.631,7.512-1.508,11.593c-0.882,4.085-2.327,7.917-4.337,11.499c-2.012,3.581-4.683,6.757-8.012,9.52
		c-3.331,2.766-7.446,4.713-12.347,5.845c-7.668,1.762-14.643,1.572-20.925-0.564c-6.286-2.137-11.771-5.498-16.454-10.088
		c-4.684-4.584-8.453-10.051-11.308-16.4c-2.854-6.345-4.533-12.912-5.04-19.699c-0.253-2.261-0.315-5.306-0.188-9.142
		c0.124-3.832,0.663-8.012,1.614-12.537s2.475-9.143,4.565-13.855c2.092-4.713,5.04-9.079,8.845-13.102
		c1.777-1.886,3.865-3.705,6.263-5.467c2.397-1.76,5.167-3.204,8.31-4.336c3.14-1.131,6.627-1.886,10.462-2.263
		c3.832-0.377,8.136-0.123,12.913,0.755c6.91,1.385,12.537,4.43,16.872,9.143c4.336,4.713,7.069,10.148,8.2,16.306
		c0.124,0.503,0.189,1.319,0.189,2.45c0,1.132-0.065,2.263-0.189,3.395c-0.126,1.131-0.409,2.139-0.848,3.017
		c-0.442,0.88-1.037,1.318-1.791,1.318c-0.377,0-0.819-0.344-1.32-1.036c-0.503-0.69-1.007-1.476-1.508-2.357
		c-0.504-0.878-1.007-1.758-1.508-2.638c-0.504-0.878-0.819-1.444-0.942-1.698c-2.516-4.397-6.159-7.696-10.934-9.895
		c-4.778-2.199-9.553-3.048-14.327-2.545c-4.901,0.503-8.954,2.168-12.159,4.995c-3.205,2.826-5.688,6.252-7.446,10.274
		c-1.762,4.022-2.954,8.452-3.585,13.288c-0.63,4.841-0.815,9.521-0.563,14.046c0.377,7.288,2.009,13.355,4.901,18.191
		c2.89,4.839,6.378,8.389,10.463,10.651c4.082,2.261,8.389,3.235,12.913,2.92c4.524-0.311,8.482-2.04,11.876-5.183
		c1.759-1.632,3.299-3.455,4.618-5.467c1.32-2.009,2.419-3.989,3.299-5.938c0.879-1.947,1.57-3.677,2.074-5.185
		c0.501-1.509,0.878-2.573,1.131-3.204c-4.023-0.627-7.699-0.252-11.028,1.131c-3.331,1.385-6.314,3.395-8.953,6.031
		c-1.635,1.008-2.987,1.321-4.054,0.944c-1.069-0.377-1.885-1.132-2.45-2.263c-0.566-1.132-0.914-2.45-1.037-3.959
		c-0.127-1.508,0-2.889,0.377-4.147c1.255-4.774,3.771-8.607,7.54-11.499c3.771-2.891,7.918-4.525,12.442-4.902
		c3.894-0.249,7.696,0.254,11.404,1.509c3.706,1.257,6.816,3.835,9.332,7.729c1.005,1.634,1.759,3.394,2.262,5.277
		c0.501,1.886,0.628,3.709,0.378,5.467c-0.254,1.385-0.755,2.422-1.509,3.111C364.327,462.836,363.573,463.18,362.819,463.18z"/>
	<path fill="#0B88CA" d="M426.345,483.161c0.501,0.378,1.227,0.976,2.168,1.791c0.944,0.818,1.853,1.729,2.734,2.734
		c0.878,1.006,1.509,2.045,1.886,3.109c0.375,1.07,0.188,2.045-0.566,2.922c-1.008,1.386-2.64,2.012-4.9,1.886
		c-2.263-0.123-4.273-0.251-6.033-0.377c-5.028-0.377-10.118-0.5-15.271-0.377c-5.153,0.126-10.243,0.818-15.27,2.073
		c-1.008,0.253-2.421,0.726-4.24,1.413c-1.824,0.692-3.71,1.321-5.657,1.886c-1.949,0.566-3.802,1.008-5.56,1.321
		c-1.762,0.315-3.081,0.158-3.96-0.473c-1.13-1.131-1.635-2.386-1.508-3.771c0.124-1.381,0.595-2.764,1.414-4.146
		c0.815-1.382,1.791-2.668,2.922-3.865c1.132-1.193,2.074-2.229,2.828-3.109c-2.516-5.529-4.118-11.655-4.808-18.382
		c-0.691-6.721-0.975-13.289-0.849-19.699c0.124-9.298,0.91-17.687,2.357-25.167c1.443-7.476,2.668-13.102,3.676-16.87
		c-0.631-0.252-1.319-0.629-2.073-1.132c-0.755-0.5-1.479-1.131-2.168-1.886c-0.692-0.754-1.226-1.536-1.603-2.357
		c-0.378-0.815-0.442-1.601-0.189-2.354c0.501-1.383,2.136-2.42,4.902-3.112c2.763-0.688,5.844-1.224,9.237-1.601
		c3.392-0.377,6.722-0.596,9.99-0.659c3.266-0.062,5.656-0.095,7.163-0.095c4.022,0,8.23,0.063,12.632,0.187
		c4.397,0.129,8.672,0.693,12.817,1.698c1.006,0.254,2.231,0.66,3.677,1.225c1.444,0.566,2.293,1.479,2.545,2.734
		c0.377,1.385-0.188,2.704-1.696,3.958c-2.766,2.263-5.908,4.022-9.426,5.28c-3.52,1.257-7.195,2.137-11.028,2.637
		c-3.835,0.506-7.666,0.726-11.499,0.662c-3.835-0.064-7.447-0.408-10.839-1.039c0.626,2.894,1.129,6.35,1.506,10.369
		c0.377,4.022,0.69,8.045,0.944,12.065c3.394-0.878,7.004-1.098,10.839-0.659c3.833,0.441,7.382,1.413,10.652,2.922
		c4.02,2.011,6.031,4.273,6.031,6.785c-0.126,1.386-0.785,2.578-1.979,3.582c-1.197,1.008-2.798,1.886-4.807,2.64
		c-2.389,0.88-5.062,1.478-8.013,1.791c-2.955,0.315-7.196,0.535-12.725,0.659c0,2.011-0.033,4.243-0.095,6.692
		c-0.064,2.45-0.159,4.967-0.282,7.54c-0.126,2.578-0.282,5.09-0.473,7.54c-0.187,2.452-0.407,4.62-0.659,6.506
		c5.654-1.886,11.624-2.48,17.91-1.791C415.285,477.538,421.068,479.645,426.345,483.161z"/>
	<path fill="#0B88CA" d="M519.47,396.822c0.752,1.257,0.564,2.45-0.566,3.581c-1.509,1.386-3.615,2.545-6.316,3.489
		c-2.703,0.941-5.56,1.791-8.576,2.545s-6.003,1.352-8.953,1.791c-2.955,0.44-5.375,0.847-7.258,1.224
		c1.003,5.656,1.725,11.721,2.168,18.193c0.438,6.473,0.659,13.102,0.659,19.888c0,3.394-0.033,7.195-0.095,11.405
		c-0.064,4.213-0.221,8.515-0.472,12.912c-0.252,4.402-0.724,8.766-1.414,13.102c-0.692,4.336-1.667,8.266-2.922,11.783
		c-1.006,2.891-2.327,4.335-3.959,4.335c-1.385,0-2.765-1.38-4.146-4.147c-1.637-2.89-2.988-6.471-4.053-10.744
		c-1.07-4.271-1.886-8.702-2.453-13.292c-0.564-4.584-0.941-9.109-1.131-13.571c-0.188-4.461-0.282-8.389-0.282-11.782
		c0-6.157,0.218-12.283,0.659-18.382c0.441-6.093,1.227-12.219,2.357-18.378c-1.008,0.125-2.578,0.125-4.713,0
		c-2.139-0.124-4.494-0.378-7.07-0.755c-2.575-0.377-5.215-0.91-7.917-1.604c-2.703-0.688-5.123-1.508-7.257-2.449
		c-2.14-0.942-3.803-2.042-4.995-3.3c-1.195-1.254-1.604-2.701-1.227-4.335c0.377-1.132,1.255-1.76,2.64-1.886
		c6.031,0,12.032-0.564,18.002-1.696c5.97-1.131,12.16-2.009,18.568-2.64c2.386-0.123,5.467-0.377,9.238-0.754
		s7.635-0.501,11.593-0.377c3.959,0.125,7.729,0.598,11.312,1.413C514.473,393.21,517.331,394.688,519.47,396.822z"/>
	<path fill="#0B88CA" d="M603.543,506.16c0.629,0.252,1.132,0.722,1.509,1.414c0.377,0.69,0.251,1.537-0.377,2.545
		c-1.383,2.386-3.646,4.243-6.786,5.562c-3.143,1.318-7.794,1.288-13.95-0.095c-4.523-1.008-8.797-3.395-12.817-7.163
		c-4.025-3.771-7.701-8.073-11.028-12.914c-3.333-4.836-6.316-9.803-8.956-14.893c-2.638-5.09-4.964-9.52-6.974-13.288
		c-0.631-1.006-1.197-2.01-1.697-3.018c-0.503-1.006-1.006-2.009-1.509-3.017c0,5.656-0.189,11.564-0.571,17.722
		c-0.38,6.157-1.774,12.063-4.185,17.72c-1.143,2.891-2.474,4.335-3.995,4.335c-1.395,0-2.789-1.38-4.186-4.147
		c-1.774-3.015-3.172-6.627-4.185-10.839c-1.015-4.21-1.807-8.607-2.379-13.197c-0.568-4.584-0.95-9.171-1.138-13.761
		c-0.192-4.587-0.287-8.766-0.287-12.534c0-4.023,0.03-8.169,0.095-12.442c0.064-4.271,0.317-8.579,0.764-12.915
		c0.441-4.335,1.139-8.606,2.092-12.819c0.951-4.207,2.315-8.261,4.092-12.157c1.392-2.763,2.851-4.148,4.376-4.148
		c1.266,0,2.598,1.509,3.995,4.525c1.138,2.389,1.997,4.839,2.565,7.351c0.572,2.516,1.016,5.061,1.333,7.635
		c0.318,2.578,0.539,5.156,0.667,7.729c0.126,2.578,0.317,5.185,0.569,7.824c3.268-3.017,6.722-5.906,10.369-8.671
		c3.643-2.764,7.286-5.593,10.934-8.484c1.003-0.754,2.355-1.79,4.054-3.111c1.695-1.319,3.455-2.794,5.277-4.429
		c1.821-1.631,3.645-3.299,5.467-4.997c1.821-1.695,3.36-3.299,4.62-4.808c0.5-0.626,1.255-0.815,2.26-0.564
		c1.509,0.377,2.515,1.319,3.018,2.827c0.5,1.509,0.721,3.143,0.659,4.902c-0.064,1.76-0.377,3.553-0.941,5.372
		c-0.567,1.824-1.104,3.176-1.604,4.054c-4.022,7.668-9.082,14.453-15.175,20.359c-6.098,5.908-12.537,11.249-19.322,16.023
		c1.632,1.385,3.266,3.05,4.902,4.995c1.632,1.952,3.327,3.93,5.09,5.938c2.26,2.64,4.396,5.908,6.408,9.803
		c2.009,3.896,4.115,7.824,6.316,11.783c2.196,3.958,4.491,7.729,6.88,11.311c2.386,3.581,5.09,6.441,8.104,8.576
		c3.017,2.14,5.685,3.71,8.012,4.713C598.232,503.772,600.777,504.903,603.543,506.16z"/>
	<path fill="#0B88CA" d="M632.009,390.414c8.42,0,15.487,2.198,21.208,6.598c5.719,4.4,10.116,9.99,13.197,16.778
		c3.078,6.785,4.836,14.297,5.276,22.526c0.439,8.232-0.346,16.211-2.354,23.941c-2.014,7.729-5.249,14.674-9.71,20.831
		c-4.462,6.159-10.023,10.62-16.684,13.384c-4.522,1.886-9.269,3.048-14.232,3.488c-4.967,0.441-9.771,0.093-14.421-1.038
		c-4.65-1.132-8.986-3.141-13.007-6.032c-4.024-2.889-7.352-6.721-9.992-11.498c-3.017-5.531-5.153-11.563-6.408-18.099
		c-1.26-6.532-1.667-13.102-1.227-19.7c0.439-6.598,1.791-12.974,4.054-19.133c2.263-6.157,5.372-11.593,9.331-16.309
		c3.958-4.712,8.86-8.512,14.704-11.403C617.589,391.858,624.344,390.414,632.009,390.414z M625.033,479.77
		c5.657,1.129,10.526,0.785,14.61-1.038c4.084-1.819,7.447-4.713,10.087-8.672c2.638-3.958,4.459-8.699,5.467-14.232
		c1.004-5.528,1.193-11.373,0.564-17.532c-0.377-3.643-1.572-7.445-3.581-11.403c-2.012-3.961-4.59-7.414-7.729-10.369
		c-3.143-2.951-6.757-4.995-10.839-6.127c-4.087-1.131-8.389-0.754-12.914,1.132c-2.892,1.257-5.311,3.048-7.258,5.372
		c-1.949,2.326-3.551,4.966-4.808,7.917c-1.257,2.955-2.198,6.033-2.827,9.238c-0.631,3.204-1.069,6.315-1.318,9.33
		c-0.378,4.402-0.282,8.609,0.282,12.632c0.566,4.022,1.632,7.635,3.204,10.839c1.57,3.204,3.771,5.939,6.598,8.199
		C617.398,477.317,620.888,478.89,625.033,479.77z M623.904,369.678c0.752,1.883,0.971,3.707,0.659,5.467
		c-0.315,1.76-1.036,3.363-2.167,4.805c-1.132,1.447-2.578,2.611-4.336,3.489c-1.763,0.88-3.647,1.318-5.656,1.318
		c-2.263-0.249-4.146-1.224-5.654-2.922c-1.509-1.695-2.263-3.8-2.263-6.315c0-1.255,0.249-2.638,0.754-4.146
		c0.5-1.508,1.193-2.763,2.073-3.771c0-1.004,0.189-1.853,0.566-2.545c0.377-0.688,1.129-1.35,2.261-1.979
		c2.514-1.006,5.151-0.785,7.919,0.659C620.823,365.186,622.773,367.163,623.904,369.678z M647.655,369.678
		c0.754,1.883,0.973,3.707,0.659,5.467c-0.313,1.76-1.036,3.363-2.168,4.805c-1.129,1.447-2.575,2.611-4.335,3.489
		c-1.76,0.88-3.646,1.318-5.654,1.318c-2.263-0.249-4.148-1.224-5.657-2.922c-1.506-1.695-2.26-3.8-2.26-6.315
		c0-1.255,0.249-2.638,0.754-4.146c0.501-1.508,1.193-2.763,2.073-3.771c0-1.004,0.188-1.853,0.564-2.545
		c0.377-0.688,1.131-1.35,2.263-1.979c2.512-1.006,5.151-0.785,7.917,0.659C644.574,365.186,646.524,367.163,647.655,369.678z"/>
	<path fill="#0B88CA" d="M740.593,405.493c-1.008,6.411-3.081,12.979-6.221,19.7c-3.143,6.727-6.853,13.322-11.124,19.795
		c-4.273,6.475-8.797,12.662-13.571,18.568c-4.779,5.908-9.302,11.249-13.573,16.023c5.905-1.131,12.188-1.16,18.851-0.095
		c6.66,1.069,12.63,3.427,17.909,7.07c0.5,0.377,1.288,1.036,2.355,1.978c1.067,0.944,2.075,1.98,3.017,3.112
		c0.944,1.131,1.632,2.293,2.073,3.486c0.438,1.195,0.218,2.234-0.66,3.111c-0.631,0.631-1.446,1.006-2.449,1.132
		c-1.009,0.126-2.045,0.159-3.109,0.093c-1.07-0.063-2.171-0.219-3.3-0.47c-1.131-0.252-2.139-0.439-3.017-0.567
		c-7.417-1.003-14.893-1.475-22.433-1.413c-7.542,0.063-15.459,0.787-23.753,2.168c-1.385,0.253-2.955,0.659-4.713,1.226
		c-1.762,0.564-3.394,0.913-4.902,1.037c-1.508,0.125-2.67-0.219-3.486-1.037c-0.818-0.815-0.975-2.606-0.472-5.372
		c1.383-6.911,4.21-14.294,8.483-22.152c4.271-7.853,9.205-15.613,14.798-23.281c5.59-7.663,11.435-15.016,17.532-22.055
		c6.093-7.037,11.654-13.258,16.683-18.663c-5.277,1.008-10.525,1.854-15.741,2.545c-5.216,0.692-11.026,0.659-17.438-0.095
		c-1.006-0.124-2.64-0.439-4.899-0.942c-2.263-0.5-4.559-1.192-6.881-2.072c-2.327-0.88-4.369-1.917-6.129-3.112
		c-1.76-1.192-2.637-2.545-2.637-4.053c0-1.381,0.377-2.512,1.131-3.395c0.754-0.877,1.695-1.601,2.827-2.168
		c1.131-0.564,2.291-0.97,3.486-1.224c1.193-0.251,2.229-0.5,3.112-0.754c7.414-1.383,15.331-2.199,23.75-2.45
		c8.42-0.251,16.401,0.377,23.943,1.883c3.892,0.755,6.785,2.234,8.671,4.431C740.593,399.683,741.219,402.354,740.593,405.493z"/>
</g>
</svg>
